<svg xmlns="http://www.w3.org/2000/svg" viewBox="0 0 900 900" role="img" aria-labelledby="title desc"><title id="title">شعار مركز 7 أكتوبر الطبي</title><desc id="desc">رقم سبعة ذهبي وخط نبض داخل دائرة تركوازية مع اسم المركز</desc><defs><linearGradient id="t" x1="0" y1="0" x2="1" y2="1"><stop offset="0" stop-color="#0b777b"/><stop offset="1" stop-color="#043f42"/></linearGradient><linearGradient id="g" x1="0" x2="1"><stop offset="0" stop-color="#b37a09"/><stop offset=".55" stop-color="#f4c553"/><stop offset="1" stop-color="#c58b12"/></linearGradient></defs><rect width="900" height="900" rx="58" fill="#fff"/><path d="M660 125A300 300 0 1 0 670 645" fill="none" stroke="url(#t)" stroke-width="34" stroke-linecap="round"/><path d="M455 96A300 300 0 0 1 730 585" fill="none" stroke="url(#g)" stroke-width="24" stroke-linecap="round"/><path d="M200 410h80l18-28 33 75 40-205 38 250 52-148 33 72h105" fill="none" stroke="#07585b" stroke-width="20" stroke-linecap="round" stroke-linejoin="round"/><path d="M455 300h230L520 615" fill="none" stroke="url(#g)" stroke-width="52"/><path d="M535 565c-62 48-98 85-105 122 70 15 139-10 188-60" fill="none" stroke="url(#t)" stroke-width="24" stroke-linecap="round"/><text x="450" y="760" text-anchor="middle" font-family="Cairo,Arial,sans-serif" font-weight="800" font-size="58" fill="#064f52">مركز 7 أكتوبر الطبي</text><text x="450" y="815" text-anchor="middle" font-family="Arial,sans-serif" font-weight="700" font-size="26" letter-spacing="8" fill="#064f52">OCTOBER 7 MEDICAL CENTER</text><path d="M205 845h175l12-18 16 36 18-50 17 32h252" fill="none" stroke="#c58b12" stroke-width="5"/><text x="450" y="890" text-anchor="middle" font-family="Cairo,Arial,sans-serif" font-size="30" fill="#064f52">رعايتك أولويتنا</text></svg>